<?xml version="1.0" encoding="UTF-8" standalone="no"?>
<!-- Created with Inkscape (http://www.inkscape.org/) -->

<svg
   xmlns:dc="http://purl.org/dc/elements/1.1/"
   xmlns:cc="http://creativecommons.org/ns#"
   xmlns:rdf="http://www.w3.org/1999/02/22-rdf-syntax-ns#"
   xmlns:svg="http://www.w3.org/2000/svg"
   xmlns="http://www.w3.org/2000/svg"
   xmlns:sodipodi="http://sodipodi.sourceforge.net/DTD/sodipodi-0.dtd"
   xmlns:inkscape="http://www.inkscape.org/namespaces/inkscape"
   id="svg6775"
   version="1.1"
   inkscape:version="0.91 r13725"
   xml:space="preserve"
   width="1024"
   height="1024"
   viewBox="0 0 1024 1024"
   sodipodi:docname="pronamic.svg"><metadata
     id="metadata6781"><rdf:RDF><cc:Work
         rdf:about=""><dc:format>image/svg+xml</dc:format><dc:type
           rdf:resource="http://purl.org/dc/dcmitype/StillImage" /><dc:title></dc:title></cc:Work></rdf:RDF></metadata><defs
     id="defs6779"><clipPath
       clipPathUnits="userSpaceOnUse"
       id="clipPath6789"><path
         d="M 0,500 500,500 500,0 0,0 0,500 Z"
         id="path6791"
         inkscape:connector-curvature="0" /></clipPath></defs><sodipodi:namedview
     pagecolor="#ffffff"
     bordercolor="#666666"
     borderopacity="1"
     objecttolerance="10"
     gridtolerance="10"
     guidetolerance="10"
     inkscape:pageopacity="0"
     inkscape:pageshadow="2"
     inkscape:window-width="1050"
     inkscape:window-height="560"
     id="namedview6777"
     showgrid="false"
     fit-margin-top="0"
     fit-margin-left="0"
     fit-margin-right="0"
     fit-margin-bottom="0"
     inkscape:zoom="0.3776"
     inkscape:cx="545.55085"
     inkscape:cy="736.22882"
     inkscape:window-x="20"
     inkscape:window-y="43"
     inkscape:window-maximized="0"
     inkscape:current-layer="g6783" /><g
     id="g6783"
     inkscape:groupmode="layer"
     inkscape:label="logo"
     transform="matrix(1.25,0,0,-1.25,8.9999992e-7,1024)"><g
       id="g6785"
       transform="matrix(3.2768,0,0,3.2768,-409.59869,-409.60033)"><g
         id="g6787"
         clip-path="url(#clipPath6789)"><g
           id="g6793"
           transform="translate(281.5186,217.5586)"><path
             d="m 0,0 c 28.029,0.529 43.968,13.469 43.968,34.344 0,34.664 -38.989,54.29 -112.758,56.757 l -5.659,0.198 0,-41.37 27.086,-2.084 0,16.428 c 38.706,-2.829 65.282,-13.858 65.282,-27.472 0,-9.615 -12.486,-11.633 -22.936,-11.633 -18.825,0 -30.368,0.924 -43.742,2.008 -6.092,0.492 -12.449,1.01 -19.88,1.453 l -5.81,0.35 0,-83.952 c -31.99,15.873 -54.078,48.787 -54.078,86.856 0,53.478 43.515,97.008 97.027,97.008 53.475,0 96.971,-43.53 96.971,-97.008 0,-46.85 -33.367,-86.035 -77.562,-95.051 l 0,-28.275 c 59.718,9.355 105.572,61.019 105.572,123.326 0,68.918 -56.077,124.98 -124.981,124.98 -68.941,0 -125.019,-56.062 -125.019,-124.98 0,-63.533 47.703,-116.018 109.119,-123.863 l 0,84.548 0.037,0 0,8.641 C -40.214,0.83 -28.048,-0.537 0,0"
             id="path6795"
             inkscape:connector-curvature="0" /></g></g></g></g></svg>